<svg version="1.1" id="Layer_1" xmlns="http://www.w3.org/2000/svg" x="0" y="0" viewBox="0 0 566 33.2" xml:space="preserve"><script xmlns=""/><style>.st0{fill:#24135f}.st2{fill:#1d1d1b}</style><path class="st0" d="M135.5 1c1.5 0 2.9.1 4.1.4 1.2.3 2.3.7 3.2 1.3.9.6 1.6 1.4 2 2.4.5 1 .7 2.2.7 3.7 0 1.6-.4 2.9-1.1 4-.7 1.1-1.8 1.9-3.2 2.6 1.9.6 3.4 1.5 4.3 2.9 1 1.4 1.4 3.1 1.4 5 0 1.6-.3 3-.9 4.1-.6 1.2-1.4 2.1-2.5 2.8-1 .7-2.2 1.3-3.6 1.6-1.3.4-2.7.5-4.1.5h-15.2V1h14.9zm-.9 12.7c1.2 0 2.2-.3 3-.9.8-.6 1.2-1.5 1.2-2.9 0-.7-.1-1.3-.4-1.8-.3-.5-.6-.8-1.1-1.1-.4-.3-.9-.4-1.5-.5s-1.2-.2-1.8-.2h-6.5v7.4h7.1zM135 27c.7 0 1.3-.1 1.9-.2.6-.1 1.2-.4 1.6-.7.5-.3.8-.7 1.1-1.3.3-.5.4-1.2.4-2 0-1.6-.5-2.8-1.4-3.5s-2.1-1-3.6-1h-7.5v8.6h7.5v.1zM174.5 30c-2.4 2.1-5.7 3.1-9.9 3.1-4.3 0-7.5-1-9.9-3.1-2.3-2.1-3.5-5.2-3.5-9.5V1h6.9v19.5c0 .9.1 1.7.2 2.5s.5 1.5.9 2.2c.5.6 1.1 1.1 2 1.5.8.4 2 .6 3.4.6 2.5 0 4.2-.5 5.1-1.6.9-1.1 1.4-2.8 1.4-5.2V1h6.9v19.5c.1 4.2-1.1 7.4-3.5 9.5zM189.3 24.6c.4.7.9 1.3 1.5 1.8s1.4.8 2.2 1c.9.2 1.7.3 2.6.3.6 0 1.3-.1 2-.2s1.4-.3 2-.6 1.1-.7 1.5-1.2.6-1.2.6-2-.3-1.5-.8-2.1c-.5-.5-1.3-1-2.1-1.3-.9-.4-1.9-.7-3-.9-1.1-.3-2.2-.6-3.4-.9-1.2-.3-2.3-.7-3.4-1.1-1.1-.4-2.1-1-3-1.6-.9-.7-1.6-1.5-2.1-2.5s-.8-2.2-.8-3.7c0-1.6.3-3 1-4.2s1.6-2.2 2.7-3c1.1-.8 2.4-1.4 3.8-1.8 1.4-.4 2.8-.6 4.2-.6 1.6 0 3.2.2 4.7.6s2.9 1 4 1.8c1.2.8 2.1 1.9 2.8 3.1.7 1.3 1 2.8 1 4.6h-6.7c-.1-.9-.3-1.7-.6-2.3-.3-.6-.8-1.1-1.3-1.5-.6-.4-1.2-.6-1.9-.7s-1.5-.2-2.4-.2c-.6 0-1.1.1-1.7.2-.6.1-1.1.3-1.5.6-.5.3-.8.7-1.1 1.1-.3.4-.4 1-.4 1.7 0 .6.1 1.1.4 1.5.2.4.7.7 1.4 1.1.7.3 1.6.6 2.9 1l4.8 1.2c.6.1 1.4.3 2.4.6s2.1.8 3.1 1.5 1.9 1.6 2.7 2.7c.7 1.1 1.1 2.6 1.1 4.3 0 1.4-.3 2.8-.8 4-.6 1.2-1.4 2.3-2.5 3.2s-2.5 1.6-4.1 2.1c-1.6.5-3.5.7-5.7.7-1.7 0-3.4-.2-5-.6-1.6-.4-3.1-1.1-4.3-2s-2.2-2.1-3-3.5c-.7-1.4-1.1-3.1-1.1-5h6.7c0 1.2.2 2.1.6 2.8zM219.7 1v31.4h-6.9V1h6.9zM232.7 1l13.1 21.1h.1V1h6.5v31.4h-6.9l-13.1-21h-.1v21h-6.5V1h6.9zM282 1v5.8h-16.6v6.7h15.2v5.4h-15.2v7.7h16.9v5.8h-23.8V1H282zM292.3 24.6c.4.7.9 1.3 1.5 1.8s1.4.8 2.2 1c.9.2 1.7.3 2.6.3.6 0 1.3-.1 2-.2s1.4-.3 2-.6 1.1-.7 1.5-1.2.6-1.2.6-2-.3-1.5-.8-2.1c-.5-.5-1.3-1-2.1-1.3-.9-.4-1.9-.7-3-.9-1.1-.3-2.2-.6-3.4-.9-1.2-.3-2.3-.7-3.4-1.1-1.1-.4-2.1-1-3-1.6-.9-.7-1.6-1.5-2.1-2.5s-.8-2.2-.8-3.7c0-1.6.3-3 1-4.2s1.6-2.2 2.7-3 2.4-1.4 3.8-1.8 2.8-.6 4.2-.6c1.6 0 3.2.2 4.7.6s2.9 1 4 1.8c1.2.8 2.1 1.9 2.8 3.1.7 1.3 1 2.8 1 4.6h-6.7c-.1-.9-.3-1.7-.6-2.3-.3-.6-.8-1.1-1.3-1.5-.6-.4-1.2-.6-1.9-.7-.7-.1-1.5-.2-2.4-.2-.6 0-1.1.1-1.7.2s-1.1.3-1.5.6c-.5.3-.8.7-1.1 1.1-.3.4-.4 1-.4 1.7 0 .6.1 1.1.4 1.5.2.4.7.7 1.4 1.1.7.3 1.6.6 2.9 1l4.8 1.2c.6.1 1.4.3 2.4.6s2.1.8 3.1 1.5 1.9 1.6 2.7 2.7c.7 1.1 1.1 2.6 1.1 4.3 0 1.4-.3 2.8-.8 4-.6 1.2-1.4 2.3-2.5 3.2s-2.5 1.6-4.1 2.1c-1.6.5-3.5.7-5.7.7-1.7 0-3.4-.2-5-.6-1.6-.4-3.1-1.1-4.3-2-1.2-.9-2.2-2.1-3-3.5-.7-1.4-1.1-3.1-1.1-5h6.7c0 1.2.2 2.1.6 2.8zM321.4 24.6c.4.7.9 1.3 1.5 1.8s1.4.8 2.2 1c.9.2 1.7.3 2.6.3.6 0 1.3-.1 2-.2s1.4-.3 2-.6 1.1-.7 1.5-1.2.6-1.2.6-2-.3-1.5-.8-2.1c-.5-.5-1.3-1-2.1-1.3-.9-.4-1.9-.7-3-.9-1.1-.3-2.2-.6-3.4-.9-1.2-.3-2.3-.7-3.4-1.1-1.1-.4-2.1-1-3-1.6s-1.6-1.5-2.1-2.5-.8-2.2-.8-3.7c0-1.6.3-3 1-4.2s1.6-2.2 2.7-3 2.4-1.4 3.8-1.8 2.8-.6 4.2-.6c1.6 0 3.2.2 4.7.6s2.9 1 4 1.8c1.2.8 2.1 1.9 2.8 3.1.7 1.3 1 2.8 1 4.6h-6.7c-.1-.9-.3-1.7-.6-2.3-.3-.6-.8-1.1-1.3-1.5-.6-.4-1.2-.6-1.9-.7-.7-.1-1.5-.2-2.4-.2-.6 0-1.1.1-1.7.2s-1.1.3-1.5.6c-.5.3-.8.7-1.1 1.1-.3.4-.4 1-.4 1.7 0 .6.1 1.1.4 1.5.2.4.7.7 1.4 1.1.7.3 1.6.6 2.9 1l4.8 1.2c.6.1 1.4.3 2.4.6s2.1.8 3.1 1.5 1.9 1.6 2.7 2.7c.7 1.1 1.1 2.6 1.1 4.3 0 1.4-.3 2.8-.8 4-.6 1.2-1.4 2.3-2.5 3.2s-2.5 1.6-4.1 2.1c-1.6.5-3.5.7-5.7.7-1.7 0-3.4-.2-5-.6-1.6-.4-3.1-1.1-4.3-2-1.2-.9-2.2-2.1-3-3.5-.7-1.4-1.1-3.1-1.1-5h6.7c0 1.2.2 2.1.6 2.8zM363 24.6c.4.7.9 1.3 1.5 1.8s1.4.8 2.2 1c.9.2 1.7.3 2.6.3.6 0 1.3-.1 2-.2s1.4-.3 2-.6 1.1-.7 1.5-1.2.6-1.2.6-2-.3-1.5-.8-2.1c-.5-.5-1.3-1-2.1-1.3-.9-.4-1.9-.7-3-.9-1.1-.3-2.2-.6-3.4-.9-1.2-.3-2.3-.7-3.4-1.1-1.1-.4-2.1-1-3-1.6s-1.6-1.5-2.1-2.5-.8-2.2-.8-3.7c0-1.6.3-3 1-4.2s1.6-2.2 2.7-3 2.4-1.4 3.8-1.8 2.8-.6 4.2-.6c1.6 0 3.2.2 4.7.6s2.9 1 4 1.8c1.2.8 2.1 1.9 2.8 3.1.7 1.3 1 2.8 1 4.6h-6.7c-.1-.9-.3-1.7-.6-2.3-.3-.6-.8-1.1-1.3-1.5-.6-.4-1.2-.6-1.9-.7-.7-.1-1.5-.2-2.4-.2-.6 0-1.1.1-1.7.2s-1.1.3-1.5.6c-.5.3-.8.7-1.1 1.1-.3.4-.4 1-.4 1.7 0 .6.1 1.1.4 1.5.2.4.7.7 1.4 1.1.7.3 1.6.6 2.9 1l4.8 1.2c.6.1 1.4.3 2.4.6s2.1.8 3.1 1.5 1.9 1.6 2.7 2.7c.7 1.1 1.1 2.6 1.1 4.3 0 1.4-.3 2.8-.8 4-.6 1.2-1.4 2.3-2.5 3.2s-2.5 1.6-4.1 2.1c-1.6.5-3.5.7-5.7.7-1.7 0-3.4-.2-5-.6-1.6-.4-3.1-1.1-4.3-2-1.2-.9-2.2-2.1-3-3.5-.7-1.4-1.1-3.1-1.1-5h6.7c.1 1.2.3 2.1.6 2.8zM409.5 30c-2.4 2.1-5.7 3.1-9.9 3.1-4.3 0-7.5-1-9.9-3.1-2.3-2.1-3.5-5.2-3.5-9.5V1h6.9v19.5c0 .9.1 1.7.2 2.5s.5 1.5.9 2.2c.5.6 1.1 1.1 2 1.5.8.4 2 .6 3.4.6 2.5 0 4.2-.5 5.1-1.6s1.4-2.8 1.4-5.2V1h6.9v19.5c.1 4.2-1.1 7.4-3.5 9.5zM433.2 1c2 0 3.6.3 5 .9s2.5 1.3 3.4 2.3c.9.9 1.5 2 1.9 3.2.4 1.2.6 2.4.6 3.7s-.2 2.5-.6 3.7-1 2.3-1.9 3.2-2 1.7-3.4 2.3-3 .9-5 .9h-7.3v11.3H419V1h14.2zm-1.9 14.7c.8 0 1.6-.1 2.3-.2.7-.1 1.4-.3 1.9-.7.6-.3 1-.8 1.3-1.4.3-.6.5-1.4.5-2.4s-.2-1.8-.5-2.4c-.3-.6-.8-1.1-1.3-1.4-.6-.3-1.2-.6-1.9-.7-.7-.1-1.5-.2-2.3-.2h-5.4v9.4h5.4zM461.9 1c2 0 3.6.3 5 .9s2.5 1.3 3.4 2.3c.9.9 1.5 2 1.9 3.2.4 1.2.6 2.4.6 3.7s-.2 2.5-.6 3.7-1 2.3-1.9 3.2-2 1.7-3.4 2.3-3 .9-5 .9h-7.3v11.3h-6.9V1h14.2zM460 15.7c.8 0 1.6-.1 2.3-.2.7-.1 1.4-.3 1.9-.7.6-.3 1-.8 1.3-1.4.3-.6.5-1.4.5-2.4s-.2-1.8-.5-2.4c-.3-.6-.8-1.1-1.3-1.4-.6-.3-1.2-.6-1.9-.7-.7-.1-1.5-.2-2.3-.2h-5.4v9.4h5.4zM476.7 10.3c.7-2 1.7-3.8 3-5.3s2.9-2.7 4.9-3.5c1.9-.8 4.1-1.3 6.5-1.3s4.6.4 6.5 1.3 3.5 2 4.8 3.5c1.3 1.5 2.3 3.2 3 5.3.7 2 1.1 4.2 1.1 6.5s-.4 4.4-1.1 6.4c-.7 2-1.7 3.7-3 5.2s-2.9 2.6-4.8 3.5c-1.9.8-4.1 1.3-6.5 1.3s-4.6-.4-6.5-1.3c-1.9-.8-3.5-2-4.9-3.5-1.3-1.5-2.3-3.2-3-5.2s-1.1-4.1-1.1-6.4c0-2.4.4-4.5 1.1-6.5zm6.3 10.3c.3 1.2.8 2.4 1.5 3.4s1.6 1.8 2.6 2.4c1.1.6 2.4.9 4 .9s2.9-.3 4-.9c1.1-.6 2-1.4 2.6-2.4.7-1 1.2-2.1 1.5-3.4.3-1.2.5-2.5.5-3.8 0-1.4-.2-2.7-.5-4s-.8-2.4-1.5-3.5c-.7-1-1.6-1.8-2.6-2.4-1.1-.6-2.4-.9-4-.9s-2.9.3-4 .9-2 1.4-2.6 2.4c-.7 1-1.2 2.2-1.5 3.5s-.5 2.6-.5 4c0 1.3.2 2.6.5 3.8zM528.1 1c1.4 0 2.7.2 3.8.7s2.1 1.1 2.9 1.9c.8.8 1.4 1.7 1.8 2.7.4 1 .6 2.2.6 3.4 0 1.8-.4 3.4-1.2 4.8-.8 1.3-2 2.4-3.8 3.1v.1c.9.2 1.6.6 2.1 1.1.6.5 1 1.1 1.4 1.7.4.7.6 1.4.8 2.2s.3 1.6.3 2.4c0 .5.1 1.1.1 1.8s.1 1.4.2 2.1c.1.7.2 1.4.4 2s.4 1.2.7 1.6h-6.9c-.4-1-.6-2.2-.7-3.6-.1-1.4-.2-2.7-.4-4-.2-1.6-.7-2.8-1.5-3.6s-2-1.1-3.7-1.1h-7v12.3h-6.9V1h17zm-2.5 14.2c1.6 0 2.8-.4 3.6-1.1.8-.7 1.2-1.8 1.2-3.4 0-1.5-.4-2.6-1.2-3.3s-2-1-3.6-1H518v8.8h7.6zM540.3 6.8V1H566v5.8h-9.4v25.6h-6.9V6.8h-9.4z"/><g><path fill="#407ec9" d="M0 .4h1.1v32.3H0z"/><path class="st2" d="M12.4 23.4v4H7.5v-4H6.3v9.3h1.2v-4.3h4.9v4.3h1.2v-9.3zM22.8 23.4l-2.9 7.8-2.9-7.8h-1.7v9.3h1.2V25l2.9 7.7h1l2.9-7.7h.1v7.7h1.1v-9.3zM36.8 31.5c-.7 1-1.9 1.4-3 1.4-2.8 0-4.4-2.3-4.4-4.7 0-2.7 1.5-5 4.4-5 2 0 3.6.9 4 3.1h-1.2c-.2-1.4-1.4-2-2.7-2-2.2 0-3.2 1.9-3.2 3.9 0 1.9 1.1 3.7 3.2 3.7 1.9 0 3-1.3 3-3h-3v-1H38v4.8h-.8l-.4-1.2zM42.2 25.8c2.1 0 3.2 1.5 3.2 3.5s-1.1 3.5-3.2 3.5-3.2-1.5-3.2-3.5c0-1.9 1.1-3.5 3.2-3.5m0 6.1c1.2 0 2.1-.9 2.1-2.5s-.9-2.5-2.1-2.5c-1.2 0-2.1.9-2.1 2.5s1 2.5 2.1 2.5M49.2 32.7H48L45.6 26h1.2l1.9 5.6 1.8-5.6h1.2zM57.8 30.6c-.3 1.5-1.4 2.3-2.9 2.3-2.1 0-3.1-1.5-3.2-3.5 0-2 1.3-3.5 3.1-3.5 2.4 0 3.1 2.2 3 3.8h-5c0 1.2.6 2.2 2.1 2.2.9 0 1.5-.4 1.7-1.3h1.2zm-1-1.9c-.1-1-.8-1.9-1.9-1.9-1.2 0-1.8.9-1.9 1.9h3.8zM58.8 26h1v1.4c.5-1.1 1.3-1.6 2.5-1.6V27c-1.8 0-2.4 1-2.4 2.7v3h-1.1V26zM62.9 26h1v1.1c.5-.8 1.2-1.2 2.2-1.2 1.8 0 2.3 1 2.3 2.4v4.4h-1.1v-4.5c0-.8-.5-1.3-1.4-1.3-1.3 0-2 .9-2 2.1v3.7h-1.1l.1-6.7zM69.8 26h1v1c.5-.8 1.2-1.1 2.2-1.1.8 0 1.6.3 1.8 1.1.5-.7 1.2-1.1 2.1-1.1 1.3 0 2.2.6 2.2 1.9v4.9H78v-4.4c0-.8-.2-1.5-1.3-1.5s-1.7.7-1.7 1.7v4.2h-1.1v-4.4c0-.9-.3-1.5-1.3-1.5-1.3 0-1.8 1.2-1.8 1.7v4.2h-1.1V26h.1zM86.2 30.6c-.3 1.5-1.4 2.3-2.9 2.3-2.1 0-3.1-1.5-3.2-3.5 0-2 1.3-3.5 3.1-3.5 2.4 0 3.1 2.2 3 3.8h-5c0 1.2.6 2.2 2.1 2.2.9 0 1.5-.4 1.7-1.3h1.2zm-1-1.9c-.1-1-.8-1.9-1.9-1.9-1.2 0-1.8.9-1.9 1.9h3.8zM87.3 26h1v1.1c.5-.8 1.2-1.2 2.2-1.2 1.8 0 2.3 1 2.3 2.4v4.4h-1.1v-4.5c0-.8-.5-1.3-1.4-1.3-1.3 0-2 .9-2 2.1v3.7h-1.1l.1-6.7zM95.6 26h1.3v1h-1.3v4.2c0 .5.1.6.8.6h.5v1h-.8c-1.1 0-1.6-.2-1.6-1.5V27h-1.1v-1h1.1v-2h1.1v2zM15.2 3.4c-.1.2-.2.3-.2.5s.2.3.3.4c.1-.2.2-.3.2-.5-.1-.1-.3-.3-.3-.4M17.9 3.4c.1.2.2.3.2.5s-.2.3-.3.4c-.1-.2-.2-.3-.2-.5.1-.1.3-.3.3-.4M13.6 3.3c.1 0 .2-.1.2-.2s-.1-.2-.2-.2-.2.1-.2.2.1.2.2.2M13.8 3.5c0-.1-.1-.2-.2-.2s-.2.1-.2.2.1.2.2.2.2-.1.2-.2M13.8 4c0-.1-.1-.2-.2-.2s-.2.1-.2.2.1.2.2.2c.2 0 .2-.1.2-.2M14.6 2.4c.1 0 .2-.1.2-.2s-.1-.2-.2-.2-.2.1-.2.2c.1.1.1.2.2.2M14.2 2.5c.1 0 .2-.1.2-.2s-.1-.2-.2-.2-.2.1-.2.2.1.2.2.2M13.8 2.9c.1 0 .2-.1.2-.2s-.1-.2-.2-.2-.2.1-.2.2c.1.1.1.2.2.2M15.1 2.4c.1 0 .2-.1.2-.2s-.1-.2-.2-.2-.2.1-.2.2c0 .2.1.2.2.2M15.6 2.6c.1 0 .2-.1.2-.2s-.1-.2-.2-.2-.2.1-.2.2.1.2.2.2M16 2.8c.1 0 .2-.1.2-.2s-.1-.2-.2-.2-.2.1-.2.2.1.2.2.2M19.3 3.1c0 .1.1.2.2.2s.2-.1.2-.2-.1-.2-.2-.2-.2.1-.2.2M19.5 3.4c-.1 0-.2.1-.2.2s.1.2.2.2.2-.1.2-.2c0-.2-.1-.2-.2-.2M19.4 3.8c-.1 0-.2.1-.2.2s.1.2.2.2.2-.1.2-.2-.1-.2-.2-.2M18.4 2.4c.1 0 .2-.1.2-.2s-.1-.2-.2-.2-.2.1-.2.2c.1.1.1.2.2.2M18.9 2.5c.1 0 .2-.1.2-.2s-.1-.2-.2-.2-.2.1-.2.2.1.2.2.2M19.3 2.9c.1 0 .2-.1.2-.2s-.1-.2-.2-.2-.2.1-.2.2.1.2.2.2M18 2.4c.1 0 .2-.1.2-.2S18.1 2 18 2s-.2.1-.2.2c0 .2.1.2.2.2M17.5 2.6c.1 0 .2-.1.2-.2s-.1-.2-.2-.2-.2.1-.2.2.1.2.2.2M16.9 2.6c0 .1.1.2.2.2s.2-.1.2-.2-.1-.2-.2-.2-.2.1-.2.2M16.2 3.6h.2v-.8c-.1 0-.1 0-.2-.1v.9zM16.9 2.7c-.1 0-.1.1-.2.1v.8h.2v-.9zM16.4 1.9v-.5c-.2 0-.4.2-.5.5h.5zM16.7 1.9h.4c0-.2-.2-.4-.4-.5v.5z"/><path class="st2" d="M16 2.1c.1.3.3.5.6.5s.5-.2.6-.5H16zM16.9 1.3c-.1-.1-.2-.3-.2-.4.1 0 .3.1.4.3V.6c-.1.1-.3.2-.4.3 0-.2.1-.3.2-.5h-.6c.1.2.2.3.2.5-.1 0-.3-.1-.4-.3v.6c.1-.1.3-.2.4-.3 0 .2-.1.3-.3.4h.7zM16.9 14.5c-.1 0-.2-.1-.2-.2s.1-.2.2-.2.2.1.2.2-.1.2-.2.2m-1.1-.3c-.1 0-.2-.1-.2-.2s.1-.2.2-.2.2.1.2.2c0 0-.1.2-.2.2m-.4-1.1c-.2-.1-.3-.1-.4 0l-.1.1-.1.1c.1.1.1.2.1.3h-.1c-.1 0-.1 0-.2-.1-.1.1-.1.2-.1.2 0 .1.1.1.1.1.1 0 .1.1.2.1-.1.1-.2.1-.3 0-.2-.1-.3-.3-.3-.3 0-.1.1-.3.2-.5 0-.1-.1-.1-.1-.2h.2c.1-.1.3-.3.5-.3.1 0 .2.1.3.1.1.1.1.1.1.2.1.2.1.2 0 .2m2.1.8c-.6-.1-1.3-.4-1.9-.7 0-.1 0-.3-.1-.4-.1-.1-.2-.1-.4-.1h-.2l-.3-.3c-.2-.3-.4-.6-.6-1-.1-.2-.1-.4-.2-.7 0 .2-.2.4-.6.4V11c-.1.1-.2.2-.6.1.1.3.1.5.2.7.2.5.5 1 .8 1.4.1.1.2.3.4.4v.1c0 .1.1.4.3.4.2.1.3.1.5-.1.3.1.6.3 1 .4.4.1.8.2 1.2.2.3 0 .7-.1 1-.4.1-.1.3-.2.4-.3-.1.2-.5.1-.9 0M17.4 16.3c0-.1-.1-.1-.2-.1-.2 0-.1.6-.4.6-.1 0-.2-.1-.2-.2s.1-.1.1-.2-.1-.1-.1-.1c-.1 0-.1 0-.1.1s.1.1.1.2-.1.2-.2.2c-.3 0-.2-.6-.4-.6-.1 0-.1 0-.2.1 0-.1-.1-.2-.1-.2 0-.1.1-.3.3-.3.3 0 .2.4.4.4.1 0 .1 0 .1-.1s-.2-.2-.2-.4.2-.3.3-.5c.2.1.3.3.3.5s-.2.3-.2.4c0 .1 0 .1.1.1.2 0 .1-.4.4-.4.2 0 .3.2.3.3-.1 0-.1.1-.1.2m-.8.8c-.1 0-.2-.1-.2-.2s.1-.2.2-.2.2.1.2.2c-.1.2-.2.2-.2.2m.6-1.5h-.1v-.7c-.3 0-.7-.1-1-.2v.8H16c-.2 0-.4.2-.4.4s.1.3.2.4c0-.1.1-.2.1-.2.1 0 .1.6.4.6v.1c0 .2.1.3.3.3.2 0 .3-.1.3-.3v-.1c.4 0 .3-.6.4-.6s.1.1.2.2c.1-.1.2-.3.2-.4-.1-.1-.3-.3-.5-.3"/><path class="st2" d="M25.3 16.5c0-.1-.1-.1 0 0-.9.2-1.9-.5-2.9-1.1-.8-.5-1.6-1.1-2.2-1.1-.2 0-.5.1-.6.2-.2.1-.4.3-.5.6s-.2.5-.3.6c-.1.2-.2.3-.2.5 0 .1.1.2.2.4.1.1.2.2.4.3 0 0 .1 0 .1.1.2.1.3.1.3.2-.3.1-.7.3-1.2.3-.5.1-1.1.1-1.7.1s-1.2 0-1.7-.1-.9-.2-1.2-.3c0-.1.1-.2.3-.3 0 0 .1 0 .1-.1.2-.1.3-.2.4-.3s.2-.2.2-.3c0-.2-.1-.3-.2-.5-.1-.1-.2-.3-.3-.6-.1-.3-.3-.5-.5-.6s-.4-.2-.6-.2c-.7 0-1.4.5-2.2 1.1-1 .6-2 1.3-2.8 1.1h-.1v.1c.2.1.5.3.7.4.3.2.6.4.9.4s.6-.1 1-.3c.3-.2.7-.4 1-.6.6-.4 1.3-.9 1.9-.9l-.2.2c-.2.2-.3.3-.3.6 0 .2.1.4.2.6 0 .1.1.1.1.2.1.2.1.3.1.4 0 .1 0 .2.1.3 0 .1.1.4.6.7s1.5.4 2.7.4c1.3 0 2.2-.1 2.7-.4.5-.2.5-.5.6-.7 0-.1 0-.2.1-.3 0-.2.1-.3.1-.4.1-.1.1-.2.1-.3.1-.2.2-.3.2-.5 0-.3-.2-.4-.4-.6l-.2-.2c.6.1 1.3.5 1.9.9.3.2.7.5 1 .6.4.2.7.3 1 .3s.6-.2.9-.4c-.1-.2.1-.3.4-.5M16.7 10.2v-3c.3 0 .6.1.9.2.3.2.6.4.8.7.2.3.4.6.6 1 .1.4.2.8.2 1.2h-2.5v-.1zm-.1-4.3c-.9 0-1.5.3-1.8.5-.2-.1-.3-.2-.3-.4 0-.5 1.4-.5 2.1-.5.7 0 2.1 0 2.1.5 0 .1-.1.3-.3.4-.4-.3-1-.5-1.8-.5m-.1 4.3h-2.6c0-.4.1-.8.2-1.2s.3-.7.6-1c.2-.3.5-.5.8-.7s.6-.2 1-.2v3.1zm3.9-.2c-.1-.1-.2-.2-.3-.4-.1-.2-.5-1-.6-1.1s-.1-.2-.1-.2c0-.1 0-.1.1-.2l.2-.2s0-.1.1-.1c-.1-.3-.3-.4-.5-.7-.2-.3-.5-.5-.8-.7.2-.1.3-.2.3-.5 0-.1-.1-.3-.2-.3.2-.5.5-1.1.7-1.4l-.5-.2c.1.2.1.4.1.6-.1-.1-.3-.2-.3-.4 0 .2-.1.4-.2.6.2-.1.3-.1.4 0-.1.1-.3.3-.7.2-.2 0-.4-.1-.4-.3 0-.1.1-.2.2-.2s.1.2.1.3c.1-.1.3-.5.1-.6-.2-.1-.3.2-.4.4 0-.2-.1-.5-.3-.4-.2 0-.2.5-.1.6 0-.2.1-.2.2-.2s.1 0 .1.2c0 .1-.2.2-.4.2s-.6-.1-.6-.5c.1 0 .4.1.5.3v-.7c-.1.2-.3.3-.5.3 0-.2.2-.4.4-.5h-.9c.2.1.3.3.4.5-.1 0-.3-.1-.4-.3v.7c.1-.1.3-.2.5-.3 0 .4-.4.5-.6.5s-.4-.1-.4-.2.1-.2.1-.2c.1 0 .2.1.2.2.1-.1.2-.6-.1-.6-.2 0-.3.2-.3.4-.1-.2-.2-.4-.4-.4-.2.1-.1.5.1.6 0-.1 0-.2.1-.3.1 0 .2.1.2.2s-.2.2-.4.3c-.3.1-.6-.1-.7-.2.2-.1.3 0 .4 0-.1-.2-.2-.4-.2-.6 0 .2-.2.3-.3.4 0-.1 0-.4.1-.6l-.5.2c.2.3.5.9.7 1.4-.1.1-.2.2-.2.3 0 .2.2.4.3.5-.3.2-.5.4-.8.7-.4.4-.6.9-.8 1.4l.5.5c.1.2.2.3.2.5s.1.3.2.5c0 0 .1.2.1.3h2.6v2.8c-.1 0-.2 0-.3.1l.9.3c0-.2.1-.3.2-.4h-.6v-2.8h2.5c0 .4-.1.8-.2 1.1-.1.4-.3.7-.6 1-.2.3-.5.5-.8.7-.1 0 0 .1-.1.1 0 0-.1.1-.1.2s0 .1-.1.3c.1 0 .2.1.3.1.9.2 1.1.2 1.2.1.2-.2.4-.3.6-.5.4-.4.6-.9.8-1.4.2-.5.3-1.1.3-1.7-.3-.2-.3-.2-.3-.3"/><path class="st2" d="M18.1 8.4c-.1 0-.1 0 0 0 0 .1 0 .1.1.1l-.1.1h.1v.1h.1c.2.3.3.7.4 1h-.1c0 .1 0 .1.1.1H18v-.1h-.1v-.1.1h-.1v.1h-.5v-.1h-.1v-.9h.1v-.1s.1 0 .1-.1h-.1v-.1h-.1v-.7h.1v-.1c.2.1.3.1.5.2 0 .1.1.3.3.5m.7 1.3s0 .1 0 0c-.1-.4-.3-.8-.5-1.2l.1-.1c-.1 0-.1 0-.2.1l-.1-.1c-.2-.2-.3-.4-.5-.5l-.6-.3s.1-.1.1 0c0-.1-.1-.1-.1-.1v.1l-.1-.1v.1h-.1s0 .1.1.1v-.1 1h-.2c.1.1.1.1.2 0v1.1c-.1 0-.1-.1 0-.1-.1 0-.1.1-.1.1h.1v.1h.1v.1s.1 0 .1-.1H17h.7v.2c.1-.1.1-.1 0-.2h.8c0 .1-.1.1-.1 0 0 .1.1.1.1.1v-.1h.1v-.1h.1c.2.1.2 0 .1 0"/><path class="st2" d="M18.3 9.4c.1 0 .1 0 0 0 .1 0 0-.1 0 0 0-.1.1-.1 0 0 0-.1 0-.1-.1-.1 0 0-.2 0-.2-.2l.1.1h.1s.1 0 .1-.1-.1-.1-.2-.2l-.1-.1c0-.1 0-.1-.1-.2v-.1c0 .1-.1.2 0 .3s.3.2.3.3h-.1c-.1-.1-.1-.2-.2-.2-.1-.1 0-.2 0-.3.1-.1 0-.2-.1-.3v-.1h-.1-.1-.1.2c0 .1-.1.1-.1.2l-.1-.1s0-.1-.1-.1l-.1-.1V7.8h-.2v.1H17c0 .1 0 .1.1.1v.1l.2.2c-.1 0-.1.1-.1.1s-.1.1-.1 0H17h0v.1h.1v.1h.1v-.1h.2l.1-.1h.1v-.1c0 .2.2.2.3.2h-.2c-.1 0-.1.1-.2.1 0 0 0 .1.1.2h-.1l-.1-.1s-.1 0 0 0h-.1H17.6v-.1-.1c0-.1.1-.1.2-.1 0 0 .1.2.2.2s.1-.1.1 0v.1H18h.1s-.1 0 0 .1v.1h.1v-.1c.1.7.2.7.1.6.1.1.1.1 0 0 .1.1.1 0 0 0 .1 0 0 0 0 0zM16 10.8c-.1 0-.1 0-.1.1s0 .1.1.1c0 .1 0 .2-.1.4l-.4-.6c.2-.1.3-.2.4-.2.1.1.1.1.1.2m-.2 1l-.6-.9c.1 0 .1 0 .2-.1l.5.7c0 .1 0 .2-.1.3m0 .4l-.9-1.2h.2l.7 1v.2m-1-1.3l.9 1.4c-.4-.2-1-.7-.9-1.4m1.4-.1c0-.2-.1-.3-.3-.3-.1 0-.4.2-.8.2-.2 0-.4-.1-.5-.2v.1c0-.1 0-.1-.1-.1s-.1 0-.1.1 0 .1.1.1h.1v.1h.1c-.1.6.4 1.4 1.2 1.6.1 0 .2 0 .2.1s0 .1-.1.1c0 0-.1 0-.1-.1s.1 0 .1-.1c0 0 0-.1-.1-.1s-.1 0-.1.1.1.2.2.2.3 0 .2-.3h.1v-1.5c-.1.2 0 .2-.1 0 .1.1.1 0 0 0M15.5 8s0-.1 0 0c.1-.1.1-.1 0 0 .1-.1.1-.1 0 0 .1-.1.1-.1 0 0 0-.1 0-.1 0 0 0-.1 0-.1 0 0 0-.1.1-.1 0 0 .1-.1.1-.1 0 0 .1-.1.1-.1 0 0 .1-.1.1-.1 0 0 .1-.1.1-.1 0 0 .1-.1.1-.1 0 0 .1-.1.1 0 0 0 .1 0 .1 0 0 0 .1 0 .1 0 0 0m.1-.2c0 .1 0 .1 0 0-.1 0-.1 0 0 0-.1 0 0 0 0 0m0 .1s.1 0 0 0c.1 0 .1 0 0 0m.5.2c.2 0 .3-.1.3-.1 0-.2-.5-.1-.5-.2v-.1c.3 0 .3-.2.4-.2-.2 0-.3.1-.3.1.1 0 .1-.1.1-.1 0 .1-.1.1-.2.1 0 0-.1 0-.1.1 0 .2.5.1.5.2s-.1.2-.2.2-.2-.1-.4-.1c0 0 .1-.1 0-.1V8h-.1v0h-.2s0 .1.1.1v.1H15.2s-.1 0 0 0h.1v.1h.1c0-.1 0 0 .1-.1h.1s.1 0 .1-.1c.1 0-.1-.1.1-.1h.1v.1h.2c-.1 0-.1-.1-.2-.1 0 0-.1 0 0 0l.2.1v-.2-.1h.1c-.1.4-.1.4-.1.3l.1.1v.1h-.1v-.2c.1 0 0 0 0 0-.1 0-.1 0 0 0M15.1 8.799999999999999c0-.1 0-.1 0 0 0-.1 0-.1 0 0 0-.1 0-.1 0 0 0-.1 0-.1 0 0 0-.1 0-.1 0 0 0-.1 0-.1 0 0 0-.1 0-.1 0 0l.1-.1-.1.1c.1-.1.1-.1 0 0 0-.1 0-.1 0 0 0-.1 0-.1 0 0m.1-.2s0 .1 0 0c0 .1 0 .1 0 0 0 .1 0 0 0 0M16.3 8.8c0-.1-.1-.1-.2-.1-.2 0-.6.1-.6 0h.2c.2.1.5-.1.6.1-.2-.2-.3-.1-.5-.1.1 0 .1 0 .1-.1-.1.1-.2 0-.3 0-.1 0-.2 0-.2.1 0 .2.5.1.6.1.2-.1.2-.1.3 0H16c-.1 0-.5-.1-.8 0 0 0 .1-.1 0-.1h-.1-.1v.1s0 .1-.1 0V9l-.1-.1V8.6h-.2v.1c0 .1-.1 0-.1 0 0 .1 0 .1.1.1l.1.1s.1.1.1 0V9h-.2-.1.1s-.1 0 0 .1h.1v.2l.1-.1h.1v.1c0-.1 0 0 .1-.1.1 0 .1-.1.2-.1h.1c.2 0 0-.1.3-.1h.1v.1h.1c-.1 0-.1-.1-.1-.1s-.1 0 0 .1h-.1.1V9h.1v-.1-.1H16.1v.1H16h.1v0H15.8c.3 0 .5-.1.5-.1M14.9 9.6c0-.1 0-.1 0 0 0-.1 0-.1 0 0 0-.1 0-.1 0 0 0-.1 0-.1 0 0 0-.1 0-.1 0 0 0-.1 0-.1 0 0 0-.1 0-.1 0 0l.1-.1-.1.1c.1-.1.1-.1 0 0 0-.1 0-.1 0 0 0-.1 0-.1 0 0 0-.1 0-.1 0 0m.1-.2s0 .1 0 0c0 .1 0 .1 0 0 0 .1 0 .1 0 0m1.2.2c0-.1-.1-.1-.2-.1-.2 0-.7.1-.7 0s.2 0 .3 0c.2.1.5-.1.6.1-.1-.2-.3-.1-.5-.1h.2-.4c-.2 0-.4 0-.4.1 0 .2.6.1.7.1.3-.2.4-.2.4-.1h-.3c-.1 0-.7-.1-.9 0 0 0 .1-.1 0-.1h-.1-.1v.1s0 .1-.1 0v.2l-.1-.1V9.4h-.2v.1h-.1c0 .1 0 .1.1.1 0 0 0 .1.1.1v.1h-.2-.1s-.1 0 0 .1h.1V10.1h.1c0-.1.1 0 .1-.1H14.8c.3 0 .1-.1.4-.1v.1h.1c-.1 0-.1-.1-.1-.1s-.1 0 0 0h-.1.1v-.1h.1v-.1-.1H15.6v.1h-.1.1v-.1-.1h-.2c.6.2.8.1.8.1M17.3 10.6zm0 .1c.1 0 .1 0 0 0 .1-.1.1-.1 0 0 .1-.1.1-.1 0 0 .1-.1 0-.1 0 0 0-.1 0-.1 0 0 .1-.1.1-.1 0 0l.1-.1c0 .1 0 0-.1.1.1-.1.1-.1 0 0 .1 0 .1-.1 0 0 .1 0 .1 0 0 0 .1 0 .1 0 0 0 .1 0 .1 0 0 0m.1-.1c-.1 0-.1 0 0 0-.1-.1 0 0 0 0m0 0s.1 0 0 0c.1 0 .1 0 0 0m1.3.3s-.1 0 0 0c-.1-.1-.1-.1 0 0-.1-.1-.2-.1-.3-.1.1 0 .3 0 .3-.1s-.1-.1-.2-.1c-.2 0-.7.1-.7 0s.2 0 .3 0c.2.1.5-.1.6-.1-.2-.1-.3 0-.5 0h.2-.4c-.2 0-.4 0-.4.1 0 .2.6.1.7.1h.2s-.1.1-.2.1-.7-.1-.9 0c0 0 .1-.1 0-.1h-.1-.1v.1s0 .1-.1 0v.2l-.1-.1V10.6h-.1v.1h-.1c0 .1 0 .1.1.1 0 0 0 .1.1.1v.1h-.2-.1s-.1 0 0 .1h.1v.1s0 .1 0 0v-.1 0h.1c0-.1 0 0 .1-.1 0 0 .1 0 .1-.1h.1c.3 0 .1-.1.4-.1v.1h.1l-.1-.1s-.1 0 0 0h-.1.1v-.1h.1v-.1-.1H18c.6.4.6.4.7.4l-.1.1h-.1v-.1c.1.1.2.1.2 0 0 .1 0 .1 0 0 0 .1 0 .1 0 0 0 .1 0 .1 0 0"/><path class="st2" d="M17.4 11.4c0-.1 0 0 0 0m0 0c-.1 0-.1 0 0 0 0 .1 0 .1 0 0-.1.1-.1.1 0 0-.1.1-.1.1 0 0-.1 0-.1 0 0 0-.1 0-.1 0 0 0-.1 0-.1 0 0 0-.1 0-.1 0 0 0-.1 0-.1 0 0 0-.1 0-.1 0 0 0-.1 0-.1 0 0 0m0-.1s-.1 0 0 0c-.1 0-.1 0 0 0-.1 0 0 0 0 0m.5 0c.2.1.5-.1.6 0-.2-.1-.3 0-.4 0h.2c-.1 0-.3-.1-.4 0h-.2c0 .2.4.1.6.1h.1-.2c-.1 0-.5-.1-.7 0 0 0 .1-.1 0-.1v.1s0 .1-.1 0v.2h-.1V11.3h-.1v.1h-.1c0 .1 0 .1.1.1h.1v.1h-.2-.1s-.1 0 0 0h.1v.1h.1c0-.1.1-.1.1-.1s.1 0 .1-.1h.1c.1 0 0-.1.3-.1l.1-.1v.2h.1s0-.1-.1-.2l-.1.1.1-.1c.1 0 .1 0 0 0l.2-.1h.2v.1h-.1-.1s-.1 0 0 0v-.1h.1s-.1 0-.3.1c.2-.1.4-.1.4-.2 0 0 0-.1-.2-.1s-.5.1-.5 0c.1.3.2.3.3.3M17.2 12.2c.1 0 .1 0 0 0 .1 0 .1 0 0 0 .1 0 .1-.1 0 0 .1-.1 0-.1 0 0 0-.1.1-.1 0 0 .1-.1.1-.1 0 0 .1 0 .1 0 0 0 .1 0 .1 0 0 0 .1 0 .1 0 0 0 .1 0 .1 0 0 0 .1 0 .1 0 0 0 .1 0 .1 0 0 0 .1 0 .1 0 0 0 .1 0 .1.1 0 0m.1-.1c-.1 0 0 0 0 0m0 0s.1 0 0 0c.1 0 .1 0 0 0m.4 0c.2.1.5-.1.6 0-.2-.1-.3 0-.4 0h.2c-.1 0-.3-.1-.4 0 0-.1 0-.1 0 0-.1 0-.1 0-.1.1s.5 0 .5.1c0 0-.1.1-.2.1s-.3-.1-.5 0c0 0 .1-.1 0-.1v.1h-.1v.2l-.1-.1v-.2h-.1v.1H17c0 .1 0 .1.1.1 0 0 0 .1.1.1 0 0 0 .1.1.1v.1h-.1-.1-.1s-.1 0 0 0h.1v.1h.1c0-.1 0 0 .1-.1h.1v-.1h.1v.1s0 .1.1.1c0 0 0-.1-.1-.1 0 0-.1 0 0 0h.2v-.1s0-.1-.1-.2H17.8s-.1 0 0 0v-.1h.1s-.1 0 0 0v-.1s-.1 0-.1-.1h.1c.2 0 .3-.1.3-.1s-.6.1-.5 0c-.1 0 0 0 0 0M8.9 2.6c0-.1-.1-.1-.1-.1-.1 0-.1.1-.1.1 0 .1.1.1.1.1.1 0 .1 0 .1-.1M8.9 2.3c0-.1-.1-.1-.1-.1-.1 0-.1.1-.1.1 0 .1.1.1.1.1l.1-.1M8.9 2.1C9 2.1 9 2 9 2c0-.1-.1-.1-.1-.1-.1 0-.1.1-.1.1l.1.1M9.3 2.1c.1 0 .1-.1.1-.1 0-.1-.1-.1-.1-.1-.1 0-.1.1-.1.1s0 .1.1.1M10.8 1.8c.1.1.1.1.2 0s.1-.1 0-.2-.1-.1-.2 0-.1.2 0 .2"/><path class="st2" d="M10.8 1.6c.1-.1.1-.1 0-.2s-.1-.1-.2 0-.1.1 0 .2h.2M10.4 1.5c.1-.1.1-.1 0-.2s-.1-.1-.2 0-.1.1 0 .2h.2M10.1 1.7c.1-.1.1-.1 0-.2s-.1-.1-.2 0-.1.1 0 .2.2.1.2 0"/><path class="st2" d="M9.3 1.5l.1.2.1-.2v.3c0 .1.1.2.2.2s.2-.1.2-.2 0-.1-.1-.1l-.2-.2h.2l-.1-.2-.2.1v-.2l-.2.1.2.2h-.2zM10.8 1.9c.1.1.1.1.1.2-.1 0-.1 0-.1-.2v.4c0-.1.1-.1.1-.1 0 .2-.1.3-.2.3s-.1 0-.2-.1c0-.1.1-.1.1-.1 0-.2-.1-.2-.2-.1.1-.2 0-.3-.1-.4-.1.2-.1.3.1.4-.1-.1-.2 0-.1.2 0-.1.1-.1.1 0s-.1.2-.2.2c-.1.1-.2 0-.2-.1 0 0 .1 0 .2.1l-.1-.3c0 .1-.1.2-.2.2 0-.1.1-.3.1-.3l-.4.1.2.1h-.3l.1.3c0-.1.1-.2.1-.2 0 .1.1.2-.1.3-.1.1-.2 0-.3 0 0-.1 0-.2.1-.1 0-.2-.2-.2-.2 0 0-.2 0-.3-.2-.3 0 .2 0 .3.2.4-.1 0-.2.1-.1.2 0-.1.1-.1.1-.1v.2c-.1 0-.2 0-.3-.1h.2v-.3.2S9 2.8 9 2.7l-.1.1c.1.1.3.2.5.5l.8-.4c.2-.1.6-.2.9-.3v-.7h-.3z"/><path class="st2" d="M11.2 3.7c-.2.1-.4 0-.5-.2.3-.1.5-.2.7-.3-.2.3 0 .4-.2.5m0 1.9c-.2.1-.4-.1-.5-.2 0-.1-.1-.3 0-.3.1-.1.1-.2.1-.3-.1-.1-.2-.1-.4 0 .1-.1.1-.2 0-.2s-.1.2-.2.2 0-.1 0-.2.1-.1.1-.2l.7-.3h.2s.2.1.1.2c0 .1-.2-.1-.3 0-.1.1 0 .1.1.2-.1.1-.3.1-.3.3 0 .1.1.2.3.2.1 0 .1.1.2.2s.1.3-.1.4M9.9 4.2c-.2 0-.2-.2-.5-.2.2 0 .5-.2.8-.3 0 .2-.1.5-.3.5m3.8 6.1c.1-.1-.2-.3-.2-.5s0-.4-.2-.7-1-1.1-1.3-1.4c.1 0 .2 0 .3.1.1.1.3.2.4.4.2-.5.5-.9.8-1.3 0-.1.1-.1.1-.2-.1 0-.3.1-.5.2 0-.2 0-.4-.2-.6.1-.3 0-.7-.7-1.2.4.1.6.4.9.2-.3 0-.3-.6-1.2-1 .4 0 .6.6 1 .2-.4 0-.5-.7-1.2-.9.2 0 .5.1.7-.1-.2.1-.4-.2-.6-.2.1-.3.1-.5 0-.7-.2 0-.4.1-.5.2 0-.2-.2-.2-.3-.2v.2c-.1 0-.5.1-.9.3-.3.1-.7.3-.8.4-.1 0-.1-.1-.2-.1-.1.1-.2.2-.1.3-.2 0-.4.1-.5.2 0 .2.2.4.4.5-.4.4 0 .8-.4 1.2.5 0 .4-.7.7-.8 0 .5-.3.6-.3 1.2 0 .3.2.6 0 .8.4-.1.3-1.1.6-1.4v.5c-.2.5 0 1.1-.2 1.3.5 0 .5-.8.9-1-.3.7-.6 2-1.1 2.7-.8 1-1.2 2.3-1.9 2.3-.3 0-.5-.2-.5-.6 0-1.2 2-2 2-3.2 0-.6-.5-.8-.7-.8s-.4.1-.6.3c-.1 0-.2-.1-.2-.1-.7 0-.5 1.3-1.1 1.3.2.1.7-.1.9-.5-.1.8-1.3.6-1.2 1.6.2-.8 2.1-.7 2.1-1.9 0-.1-.1-.2-.2-.3.1-.1.3-.1.4-.1.2 0 .4.2.4.5 0 1.1-2 1.9-2 3.2 0 .2.1.4.2.5-.1.1-.3 0-.4-.1 0 .3.5.5.8.4h.2c-.3.3-.6.4-.8.3.5.4 1.4-.1 1.3-.6.4-.3.6-.9.9-1.2v.2c-.3.5-.6 1-.6 1.7-.1.6-.4 1.1-.8 1.1-.1 0-.2-.1-.3-.1-.1.1 0 .2 0 .3 0 .2-.3.3-.3.8 0 .2.1.5.1.7.1-.1.3-.3.4-.6.1.7-.3.6 0 1.2 0-.2.2-.3.4-.2.1.1.1.1 0 .2s-.2.5.2.5c-.1-.1-.1-.2.1-.2.3-.1.4.1.7.1.2 0 .2-.2.4-.2.1 0 .1.1.1.2.2-.1.3-.2.3-.3s-.1-.2 0-.3.4 0 .2.2c.1 0 .2-.1.2-.3s-.2-.3-.4-.2c0-.1-.2-.2-.3-.2-.3 0-.3.3-.5.3-.4 0-.7-.5-.7-1.3 0-.4.5-.5.8-.7.3-.1.9-.5 1.2-1.1.3-.4.3-.9.2-1.5.5.3.5.6.5.9 0 .4-.2.5-.3.6-.1.1-.2 0-.2.1s0 .1.1.2c.2.1.1.2.2.4 0 .2.2.4.5.6v-.5c.4.2.1.9.8.9-.1-.1-.1-.3 0-.3s.2 0 .3.2c.1.2.1.2.4.2s.2-.1.3-.1c.2 0 .2.2.1.3.3-.1.4-.3.3-.5.3-.1.4.1.4.2.2-.2 0-.6-.2-.6 0-.1-.1-.2-.2-.2h-.3c-.1 0-.2.2-.3.2-.4 0-1.3-.8-1.3-1.1s.8-.5.8-1.1c0-.7-.7-.9-1.2-1.3.2-.2.8-.3 1.1-.1 0-.2.2-.1.2-.5.1.3 0 .5.1.7.1-.1.3-.1.3-.5.1.2-.1.6.1.7 0-.2.1-.2.2-.2s.1.1.1.2c0 .3-.3.1-.3.4 0 .1.2.2.2.3s-.1.2-.3.1c.1.1.2.2.3.2.1 0 .3-.1.4-.3.1.2 0 .4-.1.4.1.1.5 0 .6-.4.1 0 .2.2.1.4.2 0 .3-.1.3-.3-.3.1-.5.1-.4-.1M26.7 13.6c0-.2.2-.4.4-.4s.4.2.4.4-.2.4-.4.4-.4-.2-.4-.4m-.1 0c0 .3.3.6.6.6s.6-.3.6-.6-.3-.6-.6-.6c-.4 0-.6.3-.6.6M24.7 14.6c-.2 0-.3-.2-.3-.3s0-.1.1-.1.2-.1.3 0c.1 0 .3.1.3.2-.1.2-.2.2-.4.2m-.2-.5c-.1.1-.1.1-.1.2s0 .2.1.3.2.1.3.2h.3c.1-.1.2-.1.2-.2 0-.2-.1-.4-.4-.4-.2-.2-.3-.2-.4-.1M21.3 6.5c0-.1 0-.2.1-.2.1-.1.1-.1.2-.1 0 0 .1 0 .1.1v.1c0 .1-.1.1-.1.2-.1 0-.2 0-.3-.1m0-.4c-.2.1-.2.4-.1.5.1.1.3.2.5 0 .1-.1.2-.2.2-.3 0-.1 0-.2-.1-.2 0-.1-.1-.1-.2-.1 0 0-.2.1-.3.1M24 13.8c-.1 0-.1 0 0 0-.2-.2-.2-.2-.2-.3 0-.1 0-.2.1-.2l.1-.1c.1 0 .2.1.2.3 0 .1 0 .2-.1.2 0 .1 0 .1-.1.1m-.2-.6c-.1.1-.1.2-.1.3 0 .1 0 .3.1.3.1.1.1.1.2.1s.2 0 .2-.1c.1-.1.1-.2.1-.3s0-.2-.1-.3-.2-.1-.3-.1l-.1.1M21.1 9.1c-.1-.1-.2-.2-.2-.3.1-.1.1-.1.2-.1h.3c.1 0 .2.1.2.2V9c0 .1-.1.1-.1.1-.2.1-.3.1-.4 0m-.1-.5c-.1 0-.2.1-.2.2-.1.2 0 .4.2.5.1.1.3.1.4 0 .1 0 .2-.1.2-.2v-.3c0-.1-.1-.2-.3-.3 0 0-.2 0-.3.1"/><path class="st2" d="M25.1 11.2c-.1.1-.3.2-.4.1-.1-.1-.1-.2 0-.4.1-.1.3-.2.4-.1s.1.2 0 .4m-.6 1c-.1.1-.3.2-.4.1-.1-.1-.1-.2 0-.4.1-.1.3-.2.4-.1.1.1.1.3 0 .4m-2.3-5.8c.1-.2.2-.7.2-.7l.3.1c-.1 0-.2.1-.2.2h.2l-.1.3-.2-.2c-.1.2.1.3.2.3.2.1.3.1.3 0s-.1-.2-.2-.2c0-.1.1-.2.2-.2s.1.1.1.2c0-.2.1-.4.3-.5.1.2 0 .4-.1.5h.2c0 .1 0 .2-.1.2 0-.1-.2-.2-.2-.1s0 .2.2.3c.2.1.3 0 .4-.1h-.2l.2-.3s0 .1.1.2c0-.1.1-.2 0-.3l.4.2c-.1 0-.2.1-.3.2h.2l-.2.3c0-.1 0-.2-.1-.2-.1.2-.1.3.1.4.1.1.3.1.3 0 .1-.1 0-.2-.2-.2 0-.1.1-.2.2-.2s.1.1.1.2c.1-.2.1-.3.4-.4 0 .2-.1.4-.2.5.1 0 .2 0 .2.1s0 .2-.1.2c0-.1-.2-.2-.2-.1s0 .2.2.3c.1.1.2.1.4 0-.1-.1-.2-.1-.2-.1l.2-.2c0 .1.1.2.1.2V7l.2.2s-.3.4-.5.6l-2.6-1.4zM25 9.6s0-.1 0 0l.2-.1c.1 0 .2 0 .2.1.1.1.1.2.1.2s0 .1-.1.1h-.1c-.1 0-.2 0-.2-.1-.1 0-.1-.1-.1-.2m1 4.7c0-.1.1-.2.2-.2.1-.1.2-.1.3-.1 0 0 .1 0 .1.1v.1c0 .1-.1.2-.2.2-.1.1-.3.1-.4-.1 0 .1 0 0 0 0m-4.9-7.1c0 .1 0 .2-.1.2h-.1c-.1 0-.2-.1-.2-.2s0-.2.1-.2h.1s.1 0 .1.1c.1 0 .1 0 .1.1m1.5-3.1c.1-.2 0-.4.3-.4.1 0 .3.1.4.2-.2.1-.5.1-.7.2M27 8c.2.5.6.7.8.6-.6-.1-.1-1.1-.9-1.1h-.1c-.1-.1-.3-.2-.5-.2-.3 0-.9.3-.9 1 0 1.5 1.7 1.6 1.7 2.9 0 .4-.3.6-.6.6s-.5-.3-.8-.8c-.1-.2-.4-.6-.6-.9.1.1.2.1.3.1s.2 0 .2-.1c.1-.1.1-.1.1-.2s-.1-.2-.1-.3c-.1-.1-.2-.2-.3-.2s-.2 0-.2.1c-.1.1-.1.1-.1.2v.1c-.4-.5-.7-.9-.7-1.2 0-.2.2-.4.4-.7h.1l.1-.1.5-.5.1-.1-.5-.1c0-.1.1-.2.1-.4.1.2.2.4.3.3-.1-.2.1-.6 0-1.2.1.2.3.4.5.3-.4-.3.1-.8-.4-1.5.2.1.3 0 .3-.1-.4-.1-.2-.6-1-.8.2 0 .3-.1.3-.3-.2.1-.4-.3-1.1-.3 0-.3-.3-.5-.5-.7v.5L21.3.7l-.1-.1v.1l1.9 2.4c-.1 0-.3.1-.4.2-.1 0-.2.1-.2.2-.4.2-.7.4-.8.5s-.2.1-.1.4c0 .1-.1.3.2.2.2-.1.6-.3.7-.2 0 .1-.2.2-.3.2-.1.1-.3.2-.3.2 0 .1.1 0 .1.1s.1.1.1.1c.1 0 .1-.1.2-.1 0 0 0 .3-.1.4.2 0 .4-.2.4-.4s0-.2.1-.2c0 0 .1.2 0 .3.1 0 .2-.2.2-.5 0 .2.1.2.1.2.1 0 .2.2.4.2.4 0 .6-.3.6-.4s0-.2-.1-.3c.1.1.2.3.2.4 0 .5-.9.8-1.3 1.2l-.4-.2v.2c0 .2-.1.5-.2.7v.1c-.3.4-.5.7-.5 1.1l-.3-.3v-.1c0-.1 0-.2-.1-.3-.1-.1-.1-.1-.2-.1s-.2 0-.2.1c-.1-.1-.3-.2-.4-.4 0-.1-.1-.1-.2-.1h-.2c-.1 0-.1.1-.2.1 0 0-.1.1-.3.2l.2.2.1.1s.1 0 .1-.1h.2c.1 0 .1 0 .2.1 0 .1.4.5.7.9H21c-.1.1-.4 0-.5 0s-.2 0-.2.1-.1.1-.1.2-.1.1 0 .3.5.8.6 1.1.2.3.4.4l.6.3v-.2c-.1-.1-.3-.1-.3-.2-.1 0-.1-.1 0-.1s.3.1.5.2c-.1-.2-.2-.4-.4-.5h-.4s0 .1-.1.1-.1-.1-.1-.1c0-.1.1-.1.1-.2s-.2-.1-.2-.1c-.1-.2-.3-.5-.3-.6-.1-.1 0-.2 0-.2.1-.1.3 0 .8.1h.6c.1.5.3 1 1 1.2.4.1.7.3.9.7-1.5 0-1.7.5-1.7 1.1s.5.6.5 1-1.2.6-1.6.6c-.3 0-.5.1-.6.3l-.6.6h.2l.2-.3c.1-.1.1-.2.1-.2v.2l-.2.3c.7 0 .8-.2.8-.3s-.2-.2-.1-.3.2 0 .3.1c.1.1.1.2.3.1 0 0 1.6-.7 1.8-.7.2-.1.1-.2 0-.2-.1-.1-.1-.3-.1-.4 0-.5.3-.6.8-.6v.2c0 .7 1.1 1.5 1.4 1.5.1 0 .3-.1.3.3 0 .3.1.6 0 .9-.1.4-.2.4-.4.6-.2.2-.4.7-.5.8.1.1.2.1.3-.2.1-.2.1-.3.2-.4-.1.2-.2.5-.2.6.3 0 .7-.2.7-.4s-.2-.2-.2-.3.1-.1.2-.1.2.1.2.1c.1-.1.2-.2.2-.5v-.4c.1.1.1.1.3.1.1 0 .2 0 .3-.1s.2-.2.2-.3v-.1c0-.1 0-.1-.1-.2 0-.1-.1-.1-.2-.1s-.2 0-.4.1c-.1.1-.2.2-.2.3 0-.4-.1-.8 0-.9 0-.2 0-.3-.1-.4-.1 0-.2.1-.3.1s-.4-.3-.4-.6.3-.7.3-1.2c0-.1.1-.2.1-.1.1.1.2.4.3.5-.1.6.5 1.1 1 .7-.2 0-.4-.2-.5-.4h.2c.2.2.7.2.9-.3-.1.1-.3.2-.4.2.2-.2.3-.4.3-.7 0-1.4-1.7-1.6-1.7-2.8 0-.5.4-.8.7-.8.1 0 .2 0 .3.1-.1.1-.2.3-.2.5 0 1 1.7 1 1.7 1.4C28.3 8.7 27 9 27 8"/></g></svg>