<svg width="680" height="680" xmlns="http://www.w3.org/2000/svg" aria-labelledby="iconPhoneID" role="img">
  <title id="iconPhoneID">Phone icon</title>
  <path d="M680 537.045c0 8.694-1.61 20.043-4.83 34.049-3.22 14.005-6.6 25.033-10.142 33.082-6.761 16.099-26.401 33.163-58.92 51.193C575.843 671.79 545.9 680 516.278 680c-8.693 0-17.144-.563-25.355-1.69-8.21-1.127-17.467-3.14-27.77-6.037-10.303-2.898-17.95-5.232-22.94-7.003-4.99-1.77-13.925-5.071-26.804-9.9-12.879-4.83-20.767-7.728-23.665-8.694-31.553-11.269-59.725-24.63-84.517-40.085-41.212-25.436-83.792-60.128-127.741-104.077-43.95-43.949-78.641-86.53-104.077-127.741-15.454-24.792-28.816-52.964-40.085-84.517-.966-2.898-3.864-10.786-8.693-23.665-4.83-12.879-8.13-21.814-9.9-26.804-1.772-4.99-4.106-12.637-7.004-22.94-2.897-10.303-4.91-19.56-6.037-27.77C.563 180.867 0 172.415 0 163.722c0-29.622 8.21-59.565 24.63-89.83 18.031-32.519 35.095-52.159 51.194-58.92C83.874 11.43 94.9 8.049 108.906 4.83 122.912 1.61 134.261 0 142.955 0c4.507 0 7.888.483 10.142 1.449 5.795 1.932 14.327 14.167 25.596 36.704 3.542 6.118 8.371 14.811 14.489 26.08a2481.78 2481.78 0 0 0 16.903 30.668 1037.125 1037.125 0 0 0 14.972 25.838c.966 1.288 3.783 5.312 8.452 12.073 4.668 6.762 8.13 12.477 10.383 17.145 2.254 4.669 3.38 9.257 3.38 13.765 0 6.439-4.587 14.488-13.763 24.147a235.42 235.42 0 0 1-29.944 26.563c-10.786 8.05-20.767 16.581-29.943 25.596-9.176 9.016-13.764 16.42-13.764 22.216 0 2.898.805 6.52 2.415 10.867 1.61 4.346 2.978 7.647 4.105 9.9 1.127 2.254 3.38 6.118 6.761 11.591 3.38 5.474 5.232 8.532 5.554 9.176 24.47 44.11 52.481 81.942 84.034 113.495 31.553 31.553 69.385 59.564 113.495 84.034.644.322 3.702 2.173 9.176 5.554 5.473 3.38 9.337 5.634 11.59 6.761 2.254 1.127 5.555 2.495 9.901 4.105 4.347 1.61 7.969 2.415 10.867 2.415 5.795 0 13.2-4.588 22.216-13.764 9.015-9.176 17.547-19.157 25.596-29.943a235.42 235.42 0 0 1 26.563-29.944c9.659-9.176 17.708-13.764 24.147-13.764 4.508 0 9.096 1.127 13.765 3.381 4.668 2.254 10.383 5.715 17.144 10.383 6.762 4.669 10.786 7.486 12.074 8.452 8.05 4.83 16.662 9.82 25.838 14.972a2481.78 2481.78 0 0 0 30.668 16.903c11.269 6.118 19.962 10.947 26.08 14.489 22.537 11.269 34.772 19.801 36.704 25.596.966 2.254 1.449 5.635 1.449 10.142z" fill="#1D70B8" fill-rule="nonzero"/>
</svg>